
        <svg xmlns="http://www.w3.org/2000/svg" xmlns:xlink="http://www.w3.org/1999/xlink" version="1.1" width="3176.470588235294" height="2461.764705882353" viewBox="0 0 3176.470588235294 2461.764705882353">
			
			<g transform="scale(8.823529411764707) translate(10, 10)">
				<defs id="SvgjsDefs1885"/><g id="SvgjsG1886" featureKey="rootContainer" transform="matrix(1,0,0,1,0,0)" fill="#fff"><rect xmlns="http://www.w3.org/2000/svg" width="340" height="259" rx="10" ry="10"/></g><g id="SvgjsG1887" featureKey="e7LhAk-0" transform="matrix(1.5587828288426198,0,0,1.5587828288426198,92.96061206356055,17.251865854911607)" fill="#000000"><g xmlns="http://www.w3.org/2000/svg"><path d="M58.453,85.914c2.111-6.338,16.9-24.295,26.406-27.464c4.227,10.563,9.508,29.577,6.339,32.745   C88.029,94.365,63.734,88.027,58.453,85.914z"/><path d="M85.917,58.45c2.112-1.056,5.281-3.169,9.507,1.057c2.112,2.112,4.227,29.576-2.111,30.634   C93.312,84.857,92.255,69.014,85.917,58.45z"/><path d="M73.627,36.165c-0.084,0.038-0.173,0.067-0.256,0.108c-0.635,0.312-1.234,0.69-1.727,1.13   c-0.24,0.222-0.468,0.449-0.619,0.702c-0.432,0.078-0.846,0.159-1.383,0.448c-0.334-0.473-0.387-1.105-0.365-1.67   c0.3-0.393,0.611-0.747,0.955-1.051c0.654-0.583,1.369-1.026,2.106-1.398c-0.899-1.178-1.881-2.401-2.926-3.65   c-0.257,0.091-0.513,0.183-0.759,0.291c-0.625,0.274-1.219,0.604-1.701,0.995c-0.236,0.197-0.458,0.397-0.604,0.625   c-0.418,0.044-0.824,0.092-1.361,0.36c-0.334-0.458-0.379-1.086-0.344-1.643c0.311-0.375,0.629-0.706,0.979-0.983   c0.69-0.557,1.435-0.957,2.187-1.289c0.049-0.022,0.101-0.037,0.149-0.058c-1.048-1.207-2.158-2.432-3.304-3.66   c-0.483,0.419-0.961,0.908-1.475,1.414l-0.845,0.813c-0.503,0.027-1.024,0.051-1.578-0.093c0.052-0.581,0.104-1.032,0.159-1.501   c0.271-0.214,0.518-0.471,0.78-0.724c0.469-0.461,0.954-0.957,1.503-1.441c-1.258-1.309-2.561-2.612-3.893-3.898   c-0.014,0.007-0.029,0.011-0.041,0.018c-0.558,0.295-1.039,0.673-1.4,1.124c-0.178,0.228-0.342,0.465-0.444,0.735   c-0.409,0.137-0.805,0.319-1.317,0.611c-0.358-0.438-0.523-0.97-0.617-1.509c0.212-0.407,0.441-0.807,0.732-1.16   c0.43-0.536,0.943-0.979,1.494-1.336c-1.3-1.216-2.623-2.404-3.958-3.556c-0.479,0.186-0.914,0.418-1.252,0.709   c-0.233,0.205-0.438,0.422-0.56,0.686c-0.42,0.112-0.83,0.295-1.338,0.667c-0.374-0.459-0.519-1.087-0.523-1.71   c0.287-0.475,0.641-0.906,1.047-1.247c0.276-0.235,0.569-0.424,0.867-0.595c-1.062-0.882-2.127-1.72-3.191-2.536   c-0.487,0.264-0.958,0.556-1.375,0.904c-0.287,0.245-0.567,0.496-0.786,0.786c-0.48,0.084-0.94,0.182-1.537,0.38   c-0.205-0.572-0.167-1.188-0.089-1.761c0.341-0.369,0.684-0.72,1.061-1.028c0.288-0.239,0.596-0.444,0.903-0.649   c-0.821-0.598-1.637-1.161-2.449-1.707c-0.492,0.185-0.963,0.396-1.361,0.664c-0.26,0.181-0.505,0.368-0.674,0.593   c-0.429,0.021-0.847,0.058-1.41,0.293c-0.289-0.498-0.283-1.134-0.194-1.7c0.348-0.363,0.709-0.682,1.096-0.938   c0.146-0.097,0.294-0.183,0.442-0.268c-2.911-1.799-5.716-3.195-8.277-3.995C20.338,9.333,14.529,13.118,2.469,33.099   c2.112,7.394,7.394,29.577,43.308,46.477c2.113-9.508,15.845-26.407,32.747-33.801C78.523,43.855,76.662,40.365,73.627,36.165z"/><path d="M89.086,94.365C7.75,80.633,1.413,32.043,1.413,32.043s-3.168,25.352,25.352,48.59   C56.341,103.871,95.16,95.391,89.086,94.365z"/><path d="M1.941,24.649C3.525,14.614,4.318,10.917,8.015,7.396c4.93-4.929,10.563-5.105,20.07-5.633   C14.441,5.107,5.374,16.814,1.941,24.649z"/><path d="M36.271,2.466c2.397,1.202,4.647,2.429,6.786,3.67c0.441-0.207,0.887-0.376,1.335-0.519   c0.815-0.257,1.637-0.426,2.463-0.541c0.414-0.057,0.828-0.099,1.247-0.125c0.437,0.295,0.858,0.597,1.239,1.031L48.233,7.06   c-0.363,0.022-0.727,0.059-1.088,0.108c-0.59,0.082-1.17,0.207-1.733,0.363c0.818,0.5,1.622,1,2.403,1.503   c0.235-0.127,0.465-0.266,0.709-0.376c0.875-0.389,1.804-0.672,2.787-0.794c0.492-0.059,0.998-0.077,1.51-0.034   c0.484,0.361,0.914,0.776,1.176,1.324c-0.551,0.25-0.977,0.491-1.352,0.781c-0.349-0.029-0.713-0.018-1.078,0.026   c-0.562,0.069-1.128,0.235-1.681,0.442c1.192,0.807,2.345,1.616,3.448,2.426c0.146-0.049,0.291-0.101,0.436-0.143   c0.903-0.26,1.801-0.392,2.686-0.472c0.441-0.039,0.882-0.064,1.318-0.079c0.447,0.306,0.877,0.613,1.299,1.037   c-0.422,0.423-0.834,0.74-1.229,1.075c-0.404,0.014-0.806,0.037-1.203,0.072c-0.386,0.034-0.768,0.082-1.141,0.144   c1.372,1.065,2.686,2.128,3.91,3.186c0.404-0.146,0.816-0.267,1.229-0.361c0.399-0.091,0.803-0.16,1.205-0.211   c0.441,0.268,0.857,0.55,1.245,0.96l-0.983,1.136c-0.276,0.035-0.549,0.086-0.818,0.143c1.263,1.151,2.445,2.293,3.547,3.417   c0.247-0.131,0.501-0.251,0.77-0.348c0.43-0.155,0.879-0.259,1.326-0.309c0.483,0.268,0.9,0.584,1.236,1.036   c-0.406,0.392-0.739,0.71-0.996,1.063c-0.271,0.031-0.531,0.096-0.786,0.183c1.287,1.389,2.468,2.75,3.526,4.063   c0.07-0.019,0.14-0.043,0.211-0.062c0.393-0.098,0.79-0.181,1.193-0.246c0.453,0.251,0.896,0.516,1.291,0.921l-0.955,1.164   c-0.101,0.016-0.201,0.043-0.303,0.062c0.93,1.231,1.766,2.417,2.51,3.542c0.336-0.114,0.677-0.223,1.025-0.307   c0.424-0.101,0.858-0.179,1.307-0.224c0.477,0.275,0.936,0.583,1.281,1.049c-0.437,0.379-0.77,0.703-1.076,1.054   c-0.336,0.033-0.68,0.094-1.021,0.175c-0.113,0.027-0.224,0.069-0.336,0.1c3.22,5.25,4.392,8.894,4.708,9.527   c3.984-1.105,7.917-1.645,11.189,0.891C74.848,7.815,39.969,1.607,36.271,2.466z"/></g></g><g id="SvgjsG1888" featureKey="Qg0WB5-0" transform="matrix(2.514668837601339,0,0,2.514668837601339,18.113986980467345,179.12321907521252)" fill="#000000"><path d="M3.48 15.21 q0.17 0.14 0.435 0.375 t0.605 0.465 q0.51 0.34 1.01 0.53 t1.05 0.19 q0.51 0 0.855 -0.115 t0.545 -0.305 t0.285 -0.44 t0.085 -0.53 q0 -0.31 -0.235 -0.555 t-0.575 -0.435 t-0.71 -0.325 t-0.64 -0.225 q-1.2 -0.42 -2.1 -0.905 t-1.5 -1.08 t-0.9 -1.31 t-0.3 -1.595 q0 -0.93 0.375 -1.69 t1.07 -1.3 t1.675 -0.835 t2.19 -0.295 q0.91 0 1.745 0.205 t1.645 0.655 q0.34 0.2 0.645 0.415 t0.535 0.415 t0.365 0.38 t0.135 0.31 t-0.065 0.24 t-0.195 0.25 l-1.53 1.63 q-0.17 0.17 -0.34 0.17 q-0.14 0 -0.255 -0.08 t-0.255 -0.2 l-0.09 -0.08 q-0.2 -0.17 -0.445 -0.35 t-0.525 -0.325 t-0.59 -0.24 t-0.63 -0.095 q-0.33 0 -0.62 0.055 t-0.51 0.175 t-0.35 0.315 t-0.13 0.475 t0.14 0.485 t0.42 0.38 t0.695 0.33 t0.965 0.335 q1.06 0.35 1.955 0.735 t1.545 0.91 t1.015 1.255 t0.365 1.77 q0 1.1 -0.45 1.995 t-1.235 1.525 t-1.845 0.975 t-2.28 0.345 q-1.15 0 -2.26 -0.41 t-2.07 -1.1 q-0.4 -0.29 -0.675 -0.57 t-0.435 -0.45 l-0.03 -0.03 q-0.01 -0.02 -0.02 -0.025 t-0.02 -0.015 q-0.01 -0.02 -0.02 -0.025 t-0.02 -0.015 q-0.23 -0.25 -0.23 -0.4 q0 -0.17 0.23 -0.38 l1.73 -1.65 q0.21 -0.15 0.34 -0.15 q0.09 0 0.19 0.06 t0.24 0.18 z M14.580000000000002 7.42 q0.13 -0.11 0.27 -0.14 t0.27 -0.03 l1.51 0 q0.19 0 0.315 0.06 t0.205 0.165 t0.135 0.24 t0.105 0.295 l0.42 1.21 q0.28 -0.36 0.565 -0.735 t0.675 -0.68 t0.93 -0.505 t1.32 -0.2 q1.37 0 2.525 0.505 t1.99 1.39 t1.305 2.08 t0.47 2.585 q0 1.38 -0.47 2.58 t-1.305 2.085 t-1.99 1.395 t-2.525 0.51 q-0.65 0 -1.12 -0.155 t-0.835 -0.405 t-0.645 -0.55 t-0.55 -0.6 l0 4.66 q0 0.3 -0.18 0.51 t-0.56 0.21 l-2.29 0 q-0.12 0 -0.26 -0.05 t-0.26 -0.14 t-0.2 -0.225 t-0.08 -0.305 l0 -15.19 q0 -0.2 0.075 -0.33 t0.185 -0.24 z M23.92 13.66 q0 -0.64 -0.21 -1.215 t-0.59 -1.005 t-0.91 -0.68 t-1.17 -0.25 q-0.63 0 -1.195 0.235 t-0.99 0.64 t-0.69 0.955 t-0.295 1.17 l0 0.15 q0 0.66 0.25 1.24 t0.68 1.005 t1.01 0.675 t1.23 0.25 q0.64 0 1.17 -0.25 t0.91 -0.675 t0.59 -1.005 t0.21 -1.24 z M29.2 13.66 q0 -0.92 0.235 -1.77 t0.66 -1.575 t1.02 -1.32 t1.325 -1.015 t1.575 -0.65 t1.765 -0.23 q1.36 0 2.555 0.505 t2.08 1.39 t1.4 2.08 t0.515 2.585 q0 0.92 -0.235 1.765 t-0.66 1.575 t-1.02 1.325 t-1.325 1.02 t-1.565 0.655 t-1.745 0.23 q-0.92 0 -1.765 -0.23 t-1.575 -0.655 t-1.325 -1.02 t-1.02 -1.325 t-0.66 -1.575 t-0.235 -1.765 z M32.85 13.66 q0 0.66 0.205 1.235 t0.58 0.995 t0.91 0.665 t1.205 0.245 q0.65 0 1.175 -0.245 t0.89 -0.665 t0.56 -0.995 t0.195 -1.235 q0 -0.64 -0.195 -1.22 t-0.56 -1.02 t-0.89 -0.695 t-1.175 -0.255 q-0.67 0 -1.205 0.255 t-0.91 0.695 t-0.58 1.02 t-0.205 1.22 z M44.32000000000001 8.04 q0 -0.17 0.075 -0.325 t0.185 -0.245 q0.26 -0.17 0.54 -0.17 l1.51 0 q0.19 0 0.3 0.07 t0.185 0.18 t0.13 0.25 t0.135 0.28 q0.02 0.04 0.08 0.195 t0.13 0.34 t0.135 0.35 t0.085 0.215 q0.3 -0.33 0.575 -0.695 t0.585 -0.675 t0.69 -0.51 t0.9 -0.2 q0.54 0 0.965 0.08 t0.805 0.235 t0.755 0.395 t0.815 0.56 q0.69 0.37 0.26 1.1 l-0.91 1.55 q-0.2 0.3 -0.49 0.37 t-0.63 -0.09 q-0.43 -0.42 -0.875 -0.625 t-1.015 -0.205 q-0.39 0 -0.685 0.11 t-0.535 0.31 t-0.45 0.48 t-0.42 0.62 l0 7.24 q0 0.38 -0.185 0.575 t-0.615 0.195 l-2.25 0 q-0.78 0 -0.78 -0.77 l0 -11.19 z M56.6 5.32 q0 -0.31 0.205 -0.465 t0.585 -0.295 l2.27 -0.79 q0.05 -0.01 0.095 -0.01 l0.085 0 q0.37 0 0.495 0.215 t0.125 0.565 l-0.01 3.15 l1.67 0 q0.32 0 0.52 0.19 t0.2 0.57 l0 1.93 q0 0.42 -0.2 0.615 t-0.52 0.195 l-1.67 0 l0.01 8.04 q0 0.38 -0.22 0.575 t-0.61 0.195 l-2.26 0 q-0.77 0 -0.77 -0.77 l-0.01 -8.04 l-0.73 0 q-0.77 0 -0.77 -0.81 l0 -1.93 q0 -0.76 0.77 -0.76 l0.73 0 z M66.32 16.05 q0.27 0.27 0.585 0.455 t0.605 0.3 t0.51 0.165 t0.3 0.05 q0.19 0 0.485 -0.015 t0.565 -0.09 t0.465 -0.245 t0.195 -0.48 q0 -0.28 -0.11 -0.445 t-0.32 -0.28 t-0.515 -0.205 t-0.685 -0.21 q-1.2 -0.32 -1.98 -0.77 t-1.235 -1.005 t-0.635 -1.195 t-0.18 -1.35 q0 -0.83 0.33 -1.51 t0.94 -1.165 t1.46 -0.75 t1.89 -0.265 q0.63 0 1.18 0.105 t1.05 0.33 t0.975 0.58 t0.945 0.845 q0.17 0.2 0.175 0.375 t-0.225 0.375 q-0.39 0.32 -0.745 0.63 t-0.735 0.69 q-0.12 0.1 -0.24 0.125 t-0.23 -0.005 t-0.21 -0.1 t-0.18 -0.17 q-0.35 -0.39 -0.8 -0.525 t-0.84 -0.135 q-0.49 0 -0.78 0.17 t-0.27 0.52 q0.02 0.26 0.195 0.405 t0.43 0.235 t0.54 0.145 t0.525 0.125 q0.9 0.29 1.65 0.63 t1.3 0.835 t0.855 1.185 t0.305 1.68 t-0.395 1.77 t-1.085 1.31 t-1.635 0.81 t-2.035 0.28 q-0.62 0 -1.26 -0.11 t-1.24 -0.355 t-1.14 -0.63 t-0.96 -0.935 q-0.11 -0.14 -0.165 -0.295 t-0.05 -0.305 t0.06 -0.275 t0.175 -0.215 l1.29 -1.29 q0.24 -0.2 0.425 -0.14 t0.475 0.34 z M77.24 5.59 q0.02 -0.18 0.14 -0.31 t0.34 -0.13 l3.46 0 q0.37 0 0.48 0.38 l2.72 9.08 l2.74 -9.08 q0.14 -0.38 0.51 -0.38 l3.42 0 q0.18 0 0.325 0.125 t0.165 0.315 q0.35 3.52 0.715 6.985 t0.715 6.985 l0 0.05 q0 0.39 -0.44 0.39 l-2.83 0 q-0.46 0 -0.48 -0.44 l-0.87 -7.73 l-2.25 7.78 q-0.02 0.1 -0.145 0.24 t-0.245 0.14 l-2.63 0 q-0.12 0 -0.255 -0.135 t-0.145 -0.245 l-2.25 -7.76 l-0.87 7.71 q-0.02 0.44 -0.49 0.44 l-2.83 0 q-0.43 0 -0.43 -0.44 z M107.64999999999999 19.26 q0 0.17 -0.06 0.325 t-0.2 0.245 q-0.11 0.11 -0.26 0.14 t-0.26 0.03 l-1.97 0 q-0.21 0 -0.34 -0.055 t-0.21 -0.155 t-0.135 -0.245 t-0.115 -0.315 l-0.29 -0.75 q-0.27 0.27 -0.59 0.575 t-0.705 0.565 t-0.835 0.435 t-0.96 0.175 q-0.91 0 -1.745 -0.23 t-1.56 -0.655 t-1.315 -1.02 t-1.015 -1.325 t-0.655 -1.575 t-0.23 -1.765 q0 -1.39 0.51 -2.585 t1.39 -2.08 t2.07 -1.39 t2.55 -0.505 q0.62 0 1.14 0.185 t0.945 0.485 t0.77 0.68 t0.615 0.77 l0.39 -1.21 q0.1 -0.25 0.165 -0.405 t0.14 -0.23 t0.185 -0.1 t0.31 -0.025 l1.49 0 q0.11 0 0.26 0.03 t0.26 0.14 q0.14 0.11 0.2 0.25 t0.06 0.32 l0 11.27 z M97.8 13.66 q0 0.66 0.205 1.235 t0.585 0.995 t0.915 0.665 t1.185 0.245 q0.67 0 1.245 -0.245 t1 -0.665 t0.665 -0.995 t0.24 -1.235 q0 -0.64 -0.24 -1.22 t-0.665 -1.02 t-1 -0.695 t-1.245 -0.255 q-0.65 0 -1.185 0.255 t-0.915 0.695 t-0.585 1.02 t-0.205 1.22 z M110.05 4.289999999999999 q0 -0.32 0.16 -0.54 t0.55 -0.22 l2.45 0 q0.1 0 0.21 0.055 t0.205 0.155 t0.16 0.24 t0.065 0.31 l0 14.94 q0 0.38 -0.215 0.575 t-0.555 0.195 l-2.32 0 q-0.39 0 -0.55 -0.195 t-0.16 -0.575 l0 -14.94 z M116.25 4.289999999999999 q0 -0.32 0.16 -0.54 t0.55 -0.22 l2.45 0 q0.1 0 0.21 0.055 t0.205 0.155 t0.16 0.24 t0.065 0.31 l0 14.94 q0 0.38 -0.215 0.575 t-0.555 0.195 l-2.32 0 q-0.39 0 -0.55 -0.195 t-0.16 -0.575 l0 -14.94 z"/></g>
			</g>
		</svg>
	